<svg xmlns="http://www.w3.org/2000/svg" viewBox="0 0 1024 1024" width="1024" height="1024"><path d="M 251.68 512Q 251.68 512.28 251.91 512.51Q 515.49 776.17 548.35 808.91Q 566.38 826.86 570.76 832.93Q 582.4 849.05 587.01 870.86Q 588.86 879.6 588.84 882.99C 588.8 890.78 589.15 895.11 587.73 901.75Q 585.66 911.42 585.28 912.75C 575 948.69 547.01 974.1 510.33 980.98Q 503.58 982.24 497.58 982.06C 492.12 981.89 486.26 982.33 480.53 981.36Q 458.24 977.59 440.62 965.47Q 434.03 960.95 421.46 948.37Q 263.6 790.46 52.51 579.4Q 34.91 561.8 28.33 539.22Q 25.08 528.06 24.18 521.6Q 23.82 519 23.82 511.99Q 23.82 504.99 24.19 502.39Q 25.08 495.93 28.33 484.77Q 34.91 462.19 52.51 444.59Q 263.61 233.54 421.48 75.63Q 434.05 63.05 440.64 58.53Q 458.26 46.41 480.55 42.64C 486.28 41.67 492.14 42.11 497.6 41.94Q 503.6 41.76 510.35 43.03C 547.03 49.91 575.02 75.32 585.3 111.26Q 585.68 112.59 587.74 122.26C 589.16 128.9 588.81 133.23 588.85 141.02Q 588.87 144.41 587.02 153.15Q 582.41 174.96 570.77 191.08Q 566.39 197.15 548.36 215.1Q 515.5 247.84 251.91 511.49Q 251.68 511.72 251.68 512Z" fill="#2d3648"/><path d="M 435.18 512Q 435.18 504.99 435.54 502.39Q 436.43 495.93 439.68 484.77Q 446.27 462.19 463.87 444.59Q 674.95 233.55 832.81 75.65Q 845.38 63.07 851.97 58.55Q 869.59 46.43 891.88 42.66C 897.61 41.69 903.47 42.13 908.93 41.96Q 914.93 41.78 921.68 43.04C 958.36 49.92 986.35 75.33 996.63 111.27Q 997.01 112.6 999.08 122.27C 1000.49 128.91 1000.14 133.24 1000.18 141.03Q 1000.2 144.42 998.35 153.16Q 993.74 174.97 982.1 191.09Q 977.72 197.15 959.69 215.1Q 926.83 247.84 663.25 511.49Q 663.03 511.72 663.03 512Q 663.03 512.28 663.25 512.51Q 926.83 776.16 959.69 808.9Q 977.72 826.85 982.1 832.91Q 993.74 849.03 998.35 870.84Q 1000.2 879.58 1000.18 882.97C 1000.14 890.76 1000.49 895.09 999.07 901.73Q 997 911.4 996.62 912.73C 986.34 948.67 958.35 974.08 921.67 980.96Q 914.92 982.22 908.92 982.04C 903.46 981.87 897.6 982.31 891.87 981.34Q 869.58 977.57 851.96 965.45Q 845.37 960.93 832.81 948.35Q 674.95 790.45 463.86 579.4Q 446.26 561.8 439.68 539.22Q 436.43 528.06 435.54 521.6Q 435.18 519 435.18 512Z" fill="#3b6cff"/></svg>
